<?xml version="1.0" encoding="UTF-8" standalone="no"?>
<!-- Created with Inkscape (http://www.inkscape.org/) -->

<svg
   xmlns:dc="http://purl.org/dc/elements/1.1/"
   xmlns:cc="http://creativecommons.org/ns#"
   xmlns:rdf="http://www.w3.org/1999/02/22-rdf-syntax-ns#"
   xmlns:svg="http://www.w3.org/2000/svg"
   xmlns="http://www.w3.org/2000/svg"
   xmlns:inkscape="http://www.inkscape.org/namespaces/inkscape"
   version="1.1"
   width="600"
   height="600"
   id="svg3220">
  <metadata
     id="metadata3226">
    <rdf:RDF>
      <cc:Work
         rdf:about="">
        <dc:format>image/svg+xml</dc:format>
        <dc:type
           rdf:resource="http://purl.org/dc/dcmitype/StillImage" />
        <dc:title />
      </cc:Work>
    </rdf:RDF>
  </metadata>
  <defs
     id="defs3224" />
  <g
     id="g5696">
    <path
       d="m 178.26726,595.61516 c -13.3834,-2.56514 -31.76167,-10.63141 -45.04427,-19.77007 -7.70522,-5.30134 -12.90298,-7.12769 -20.99073,-7.37565 -12.678227,-0.3887 -11.53752,-4.41042 2.30848,-8.13876 11.4305,-3.07794 24.31077,0.0303 45.94474,11.08685 36.90168,18.85966 75.51793,17.87619 119.69,-3.04835 27.8921,-13.21262 28.10684,-14.67994 2.14845,-14.67994 -40.39854,0 -74.45874,-10.94361 -93.58381,-30.0687 -9.05628,-9.05629 -12.45994,-10.88103 -25.15884,-13.48803 C 106.01278,498.31392 61.11601,446.05772 61.567811,391.3971 c 0.01519,-1.83413 -2.670351,-13.33908 -5.967822,-25.56657 -8.851357,-32.82219 -10.504063,-80.98147 -3.433217,-100.04309 2.721451,-7.33648 5.590153,-19.25597 6.374889,-26.48776 1.115322,-10.27837 1.974038,-12.46227 3.933679,-10.00432 7.739753,9.70796 7.425111,28.3774 -0.795031,47.17264 -5.431635,12.41941 -6.030841,16.39877 -6.091231,40.45257 -0.06407,25.50482 3.929945,53.24075 8.031739,55.77578 1.048071,0.64773 1.906377,-0.63207 1.907343,-2.84404 9.64e-4,-2.21195 2.788571,-10.02435 6.194681,-17.36085 5.792684,-12.47703 6.062913,-14.34482 4.18129,-28.90134 -4.477173,-34.63593 4.886196,-83.01129 23.021622,-118.94012 11.719617,-23.21826 19.877327,-33.68616 36.324857,-46.61177 7.81336,-6.14027 15.45177,-14.17145 16.97426,-17.84707 4.01497,-9.69306 7.48793,-8.37824 6.05661,2.29302 -1.49645,11.1568 -9.48508,21.84127 -24.77683,33.13797 -32.9432,24.33656 -49.534314,62.9361 -51.819827,120.55985 -1.554965,39.20471 -1.148399,40.23334 11.501808,29.09817 19.534539,-17.19499 45.403829,-18.32275 61.064499,-2.66208 6.34991,6.34992 6.7557,6.45498 8.96755,2.3221 6.13585,-11.46495 30.33167,-9.57045 35.9757,2.81682 5.5861,12.26017 -5.67355,26.49265 -17.63186,22.28711 -8.09024,-2.84518 -12.35812,-11.59799 -8.49337,-17.41863 4.01362,-6.04484 9.31428,-7.63313 7.05304,-2.11339 -4.18838,10.22403 -3.96626,11.75745 1.91709,13.23409 11.07523,2.77969 17.03265,-9.74507 8.36593,-17.58833 -10.84872,-9.81796 -24.27676,-1.62203 -26.76,16.33324 -2.9372,21.23792 -10.88001,28.89739 -29.96632,28.89739 -25.85424,0 -33.47494,-34.38608 -8.68243,-39.17685 4.69735,-0.90769 7.22533,-0.5211 7.22533,1.10491 0,1.37558 -1.54612,2.50106 -3.43581,2.50106 -4.52972,0 -14.34961,9.93691 -14.34961,14.52063 0,1.98378 3.04957,6.65643 6.77684,10.38371 16.86378,16.86375 43.98517,-3.30338 34.61182,-25.73693 -7.17616,-17.17499 -34.10799,-22.98129 -51.58465,-11.12128 -14.717687,9.98767 -20.570301,18.17822 -18.697583,26.1666 9.723204,41.47595 27.359983,72.80281 57.346123,101.85946 16.18617,15.68449 28.79186,25.63732 30.05944,23.7335 0.31376,-0.47131 2.91487,-6.6953 5.78019,-13.83103 l 5.20965,-12.97406 -4.40522,-5.92296 c -5.52835,-7.43298 -11.93677,-8.51256 -17.04231,-2.87101 -4.82465,5.33118 -1.55006,13.62191 5.38022,13.62191 2.40251,0 4.36813,1.00041 4.36813,2.22316 0,2.50548 -6.64712,2.94535 -12.21596,0.80841 -6.15465,-2.36177 -8.45231,-11.69801 -4.40066,-17.88157 7.55478,-11.53008 22.39367,-10.94775 29.33756,1.15131 l 3.64446,6.35012 7.68982,-5.21844 c 5.24047,-3.5563 10.86439,-5.21843 17.65661,-5.21843 9.34161,0 10.82139,0.88956 23.58895,14.18102 14.379,14.96893 23.90888,19.32835 32.36249,14.80416 10.09474,-5.40253 7.5211,-20.09248 -3.5201,-20.09248 -6.03835,0 -9.33065,5.66729 -5.51116,9.48681 4.49053,4.49053 3.12877,8.78177 -1.92798,6.07546 -9.45349,-5.05936 -3.51074,-22.2318 7.6936,-22.2318 14.16572,0 20.18221,17.01788 9.90656,28.02114 -4.67493,5.00596 -6.74699,5.62318 -15.9553,4.75243 -5.97905,-0.56539 -12.56554,-2.7952 -15.14094,-5.1259 -4.47717,-4.05176 -4.65535,-4.0012 -10.00943,2.84002 -6.81171,8.70373 -16.07797,11.0177 -25.20999,6.29537 -12.84381,-6.64182 -10.04538,-25.75698 3.74736,-25.59674 l 6.06249,0.0705 -6.11375,4.56138 c -9.83952,7.34103 -6.92074,17.5295 5.02187,17.5295 15.35571,0 19.54873,-18.42886 6.09404,-26.78386 -9.54684,-5.92834 -20.38544,-4.03964 -30.28441,5.27724 -7.12293,6.70408 -15.69256,21.66962 -15.79777,27.58837 -0.0999,5.61384 35.31822,20.42754 59.87835,25.04427 15.19694,2.85673 28.59222,-1.21988 66.29735,-20.17626 14.33481,-7.20689 28.06418,-13.12159 30.50968,-13.14378 18.68324,-0.16968 73.53481,-21.44808 94.95143,-36.83438 l 11.06716,-7.95097 -1.58033,7.37165 c -0.86918,4.05438 -4.4137,13.12411 -7.87673,20.15491 -3.46298,7.03079 -5.71916,12.78328 -5.01371,12.78328 3.27477,0 39.78348,-32.86257 54.37732,-48.94666 31.05903,-34.23053 51.74608,-67.10984 61.52339,-97.7832 9.58021,-30.05497 8.94494,-29.33943 9.13597,-10.28962 0.55544,55.38034 -18.66251,117.19106 -51.86619,166.81717 -22.22092,33.21137 -39.11572,50.206 -60.73883,61.09781 -5.46853,2.75453 -11.00293,7.7503 -13.22725,11.93976 -3.06255,5.76829 -3.99681,6.39334 -4.68903,3.13714 -2.48239,-11.67635 7.46372,-23.85278 28.71191,-35.15034 32.83609,-17.45883 54.6097,-49.85201 58.86531,-87.57566 1.70701,-15.13157 1.3619,-15.12804 -6.96693,0.0713 -32.4613,59.23828 -108.61431,113.48945 -171.8181,122.40272 -6.59489,0.93004 -16.47236,5.19652 -26.91775,11.62685 -46.89238,28.86747 -89.7402,40.32409 -125.31314,33.50602 z"
       inkscape:connector-curvature="0"
       id="path3463"
       style="fill:#660000;fill-opacity:1" />
    <path
       d="m 338.97754,464.09174 c 0,-0.41525 6.43323,-5.9103 14.29611,-12.2112 14.54799,-11.65806 32.64857,-31.9742 49.56673,-55.63393 7.88905,-11.0327 15.72079,-27.61294 23.81836,-50.4247 1.4052,-3.95861 1.92109,-3.63719 4.70315,2.93009 3.83398,9.05056 11.7595,20.4133 14.23826,20.4133 2.82959,0 8.52047,-15.87554 11.51321,-32.11789 l 2.70436,-14.67689 6.93691,6.72355 c 3.81532,3.69797 7.6907,6.72354 8.61193,6.72354 4.47034,0 8.7754,-18.54214 10.06533,-43.35201 1.15303,-22.17694 1.94974,-26.53311 4.72186,-25.8185 13.83402,3.56632 13.33907,3.90243 13.33907,-9.05793 0,-13.71457 -6.39635,-25.82216 -21.18016,-40.09166 -13.55077,-13.07938 -39.19425,-19.05438 -55.3748,-12.90254 -4.02691,1.53105 -5.70268,1.43321 -5.70268,-0.33291 0,-3.96124 13.94997,-39.62929 15.49925,-39.62929 0.76777,0 5.29796,8.00328 10.06715,17.78508 4.76918,9.78183 9.34361,17.03495 10.1654,16.11804 0.8218,-0.91685 3.25257,-9.01056 5.40169,-17.98596 l 3.90751,-16.31892 10.23442,17.36667 10.23442,17.3667 2.8362,-13.27526 c 1.55991,-7.30137 3.58707,-16.65888 4.50479,-20.79448 l 1.66863,-7.51922 11.82435,17.52353 c 25.75915,38.17477 42.07336,83.22402 39.3496,108.65807 -4.26813,39.85501 -31.42268,90.504 -70.58373,131.6535 -24.6018,25.85096 -37.95699,37.52043 -36.35494,31.76609 0.85101,-3.05687 3.04122,-10.91768 4.86706,-17.46847 1.82587,-6.55081 2.82656,-12.40371 2.22382,-13.00651 -0.60278,-0.60274 -4.91386,1.96579 -9.58022,5.7079 -15.39722,12.34748 -43.02965,26.5525 -64.82717,33.32574 -22.45048,6.97609 -33.69587,9.83169 -33.69587,8.55647 z"
       inkscape:connector-curvature="0"
       id="path3449"
       style="fill:#a10000;fill-opacity:1" />
    <path
       d="m 252.27351,412.92082 c 0,-6.26845 7.32046,-27.55023 12.64292,-36.75492 10.15738,-17.56631 78.89597,-92.43713 81.63821,-88.92127 0.33231,0.42604 0.002,5.77677 -0.73045,11.89051 -2.5452,21.19866 -41.40452,74.37055 -77.32239,105.80144 -12.95435,11.33609 -16.22829,12.94687 -16.22829,7.98424 z"
       inkscape:connector-curvature="0"
       id="path3447"
       style="fill:#006666;fill-opacity:1" />
    <path
       d="m 174.46222,407.12018 c -5.0815,-1.37909 -4.44163,-2.02124 7.4639,-7.49039 10.6407,-4.8881 21.617,-14.46149 60.02586,-52.35372 46.05422,-45.43477 53.37743,-52.241 75.90534,-70.54718 12.9056,-10.48709 55.98841,-40.52005 75.49409,-52.62679 27.82192,-17.26848 54.5495,-21.36192 75.12635,-11.50592 10.97996,5.25922 10.52822,7.96957 -2.74847,16.48919 -16.58849,10.64482 -40.50399,18.17607 -61.99363,19.52255 l -18.61114,1.16609 -16.51744,13.12581 c -33.75926,26.82722 -84.58272,78.08819 -102.64165,103.52514 -9.82007,13.8322 -48.54775,36.16738 -68.25338,39.36346 -4.83955,0.78492 -10.80002,1.74506 -13.24553,2.13366 -2.44549,0.38859 -6.94744,0.028 -10.0043,-0.8019 z"
       inkscape:connector-curvature="0"
       id="path3445"
       style="fill:#660000;fill-opacity:1" />
    <path
       d="m 308.45515,393.06449 c 0.69167,-8.96215 3.37214,-21.05258 6.03753,-27.23267 5.57731,-12.93173 33.07186,-54.4692 36.05435,-54.4692 1.11507,0 6.3727,-4.40772 11.68364,-9.79492 l 9.65625,-9.79491 1.13564,5.90434 c 1.46982,7.64209 -8.4801,43.0359 -15.72192,55.92594 -13.41584,23.87935 -40.76187,55.57949 -47.94551,55.57949 -1.29366,0 -1.65059,-6.39222 -0.89998,-16.11807 z"
       inkscape:connector-curvature="0"
       id="path3443"
       style="fill:#006666;fill-opacity:1" />
    <path
       d="m 364.88637,397.71199 c -2.20646,-8.24098 -1.67905,-36.1063 0.9274,-49.00167 5.60794,-27.74537 11.09957,-40.25132 22.60709,-51.48261 l 11.06578,-10.80008 -1.27803,10.80008 c -0.70291,5.9401 -1.91252,20.30425 -2.68804,31.92036 -1.19951,17.96674 -2.72403,24.10768 -10.21051,41.12883 -4.84028,11.00474 -11.10228,22.8503 -13.91554,26.32349 l -5.11507,6.31489 -1.39308,-5.20329 z"
       inkscape:connector-curvature="0"
       id="path3441"
       style="fill:#006666;fill-opacity:1" />
    <path
       d="m 400.02064,376.96136 c -1.67883,-13.43699 0.37702,-82.46756 2.56129,-86.00178 0.65411,-1.05839 3.12161,0.34815 5.48328,3.12559 l 4.294,5.04997 5.21668,-6.28854 5.21665,-6.28852 1.25009,22.68595 c 1.3124,23.81775 -0.30339,33.78073 -9.43815,58.19552 -2.60503,6.96265 -6.57955,14.93547 -8.83217,17.71738 l -4.09573,5.05799 -1.65594,-13.25356 z"
       inkscape:connector-curvature="0"
       id="path3439"
       style="fill:#006666;fill-opacity:1" />
    <path
       d="M 441.7216,359.73672 C 434.29555,350.78889 429.94018,334.2537 428.74043,310.454 l -1.24303,-24.65794 4.37876,6.31032 c 4.62309,6.66242 5.31319,6.44621 12.46659,-3.90604 2.68485,-3.8854 3.19925,-3.19238 5.77592,7.78114 1.55574,6.62553 3.72141,13.77732 4.81264,15.89291 2.14514,4.15888 -5.25431,45.3006 -8.78189,48.82821 -1.16003,1.16003 -2.99583,0.75957 -4.42782,-0.96588 z"
       inkscape:connector-curvature="0"
       id="path3437"
       style="fill:#006666;fill-opacity:1" />
    <path
       d="m 464.44393,320.43764 c -3.17035,-4.79074 -7.61408,-15.90186 -9.87497,-24.69137 l -4.1107,-15.98095 5.42654,5.09795 c 6.6389,6.2369 9.67728,3.99485 11.33499,-8.36416 l 1.17008,-8.72374 6.75927,6.31415 6.75932,6.31413 -1.37274,19.37005 c -2.28006,32.17243 -5.6295,36.47353 -16.09179,20.66394 z"
       inkscape:connector-curvature="0"
       id="path3435"
       style="fill:#006666;fill-opacity:1" />
    <path
       d="m 350.21888,298.57934 c 0.23709,-11.55046 5.39413,-20.19075 18.21577,-30.51951 14.35395,-11.56309 16.14544,-9.81328 7.42288,7.25001 -5.77647,11.30012 -20.37074,29.38325 -23.71416,29.38325 -1.12749,0 -1.99347,-2.75118 -1.92449,-6.11375 z"
       inkscape:connector-curvature="0"
       id="path3433"
       style="fill:#660033;fill-opacity:1" />
    <path
       d="m 235.46953,296.52021 c 4.52099,-18.3598 18.97621,-32.54557 61.01413,-59.87671 19.28148,-12.53595 23.26482,-13.68875 17.15408,-4.96446 -5.48977,7.83772 -4.38152,9.21252 6.44276,7.99247 5.50237,-0.6202 9.95329,-0.5002 9.89096,0.26666 -0.2937,3.61312 -58.31944,43.91154 -76.05135,52.81702 l -19.9964,10.04277 1.54582,-6.27775 z"
       inkscape:connector-curvature="0"
       id="path3431"
       style="fill:#006666;fill-opacity:1" />
    <path
       d="m 270.05894,301.2479 c 0,-6.92929 13.89408,-22.06755 31.12453,-33.91162 5.50236,-3.78231 15.00647,-10.91973 21.1202,-15.86093 13.14755,-10.62604 14.18759,-10.88061 12.70204,-3.10935 -0.92122,4.81906 -0.44974,5.66015 2.53147,4.51616 7.72906,-2.96593 3.10446,2.41995 -10.03341,11.68501 -7.53329,5.31261 -19.84468,14.87462 -27.35859,21.24892 -7.51393,6.37423 -15.79079,12.72899 -18.39302,14.12168 -4.95184,2.65013 -11.69322,3.40546 -11.69322,1.31013 z"
       inkscape:connector-curvature="0"
       id="path3429"
       style="fill:#006666;fill-opacity:1" />
    <path
       d="m 377.66068,290.79822 c 0.80156,-5.1967 3.51205,-15.7012 6.02334,-23.34339 4.41785,-13.44418 4.8125,-13.89487 12.16585,-13.89487 9.18405,0 9.70658,3.30061 3.22362,20.36239 -4.14787,10.91628 -16.32186,26.32438 -20.79903,26.32438 -1.18318,0 -1.44634,-4.05094 -0.61378,-9.44851 z"
       inkscape:connector-curvature="0"
       id="path3427"
       style="fill:#660033;fill-opacity:1" />
    <path
       d="m 183.35492,291.29122 c 0,-11.17101 54.15007,-52.38024 97.78754,-74.41824 12.20114,-6.16186 12.67199,-5.29832 2.81137,5.15673 -4.72571,5.01059 -3.14097,6.7934 6.66952,7.50322 l 9.44852,0.68365 -10.26935,6.03706 c -5.64813,3.32038 -17.56501,11.56427 -26.48192,18.31973 -16.86913,12.78012 -53.95543,32.86556 -65.51501,35.48213 -3.66823,0.83028 -8.42028,2.02977 -10.56009,2.66549 -2.13981,0.63571 -3.89058,-0.007 -3.89058,-1.42977 z"
       inkscape:connector-curvature="0"
       id="path3425"
       style="fill:#006666;fill-opacity:1" />
    <path
       d="m 408.38214,287.46345 c -0.87871,-2.13982 -1.50212,-10.23879 -1.38545,-17.99769 0.2245,-14.92478 2.1922,-18.03187 11.4595,-18.09495 4.53025,-0.0309 5.00216,1.02301 5.00216,11.17042 0,11.34636 -6.80817,28.81278 -11.23086,28.81278 -1.23626,0 -2.96669,-1.75075 -3.84535,-3.89056 z"
       inkscape:connector-curvature="0"
       id="path3423"
       style="fill:#660033;fill-opacity:1" />
    <path
       d="m 431.48089,282.41628 c -1.9669,-4.91574 -3.57618,-14.31136 -3.57618,-20.87918 0,-11.02699 0.44573,-12.05335 5.82031,-13.40228 7.68354,-1.92847 8.19226,-1.15538 9.29786,14.12904 0.92165,12.74207 -2.53813,29.09015 -6.15645,29.09015 -0.99515,0 -3.41865,-4.02199 -5.38554,-8.93773 z"
       inkscape:connector-curvature="0"
       id="path3421"
       style="fill:#660033;fill-opacity:1" />
    <path
       d="m 454.99158,276.04366 c -7.34967,-13.077 -10.04374,-29.50814 -5.41791,-33.04382 1.99974,-1.52842 4.28449,-2.77897 5.07728,-2.77897 5.13084,0 11.21051,33.92554 7.32417,40.87004 -1.74121,3.11141 -2.84748,2.31187 -6.98354,-5.04725 z"
       inkscape:connector-curvature="0"
       id="path3419"
       style="fill:#660033;fill-opacity:1" />
    <path
       d="m 132.66478,273.59871 c -11.26411,-2.66767 -10.67272,-3.33124 8.63955,-9.69394 10.74826,-3.54117 30.68637,-13.44707 49.47938,-24.58299 51.53323,-30.53624 93.41321,-50.31248 122.70158,-57.94112 46.55343,-12.12564 71.14275,-2.92094 81.11702,30.36502 2.16591,7.22809 -6.04159,14.12189 -14.33483,12.04044 -6.7346,-1.69028 -25.08186,-18.10801 -29.25538,-26.17868 -3.21965,-6.22619 -3.86966,-6.46177 -13.82032,-5.0092 -31.096,4.53937 -84.89274,32.28604 -130.21547,67.1611 -18.60704,14.31779 -48.6594,19.91458 -74.31153,13.83937 z"
       inkscape:connector-curvature="0"
       id="path3417"
       style="fill:#660000;fill-opacity:1" />
    <path
       d="m 473.88415,266.974 c -3.05748,-3.63358 -7.25245,-11.70489 -9.32216,-17.93628 -3.60346,-10.84899 -3.58842,-11.46192 0.3542,-14.44442 5.4363,-4.11234 7.71631,-3.17775 12.58509,5.15871 4.76126,8.15239 7.65968,30.29469 4.24204,32.40689 -1.26511,0.78191 -4.80173,-1.55133 -7.85917,-5.1849 z"
       inkscape:connector-curvature="0"
       id="path3415"
       style="fill:#660033;fill-opacity:1" />
    <path
       d="m 490.64841,261.21502 c -3.00836,-2.10712 -4.9515,-5.80287 -4.96779,-9.4485 -0.0155,-3.29324 -2.4291,-10.18901 -5.36529,-15.32392 -4.672,-8.17067 -4.92453,-9.67974 -2.02279,-12.08797 2.7512,-2.2833 4.32693,-1.47338 9.25583,4.75764 7.70201,9.73665 14.21612,26.05585 12.52615,31.38047 -1.61327,5.08289 -3.0439,5.19251 -9.42611,0.72228 z"
       inkscape:connector-curvature="0"
       id="path3413"
       style="fill:#660033;fill-opacity:1" />
    <path
       d="m 338.97754,246.78 c 0,-5.21885 7.03387,-15.36679 15.05421,-21.71904 l 8.51855,-6.74679 7.11063,4.5021 c 9.23316,5.84603 9.07474,6.49039 -3.61733,14.71455 -15.8539,10.27296 -27.06606,14.10449 -27.06606,9.24918 z"
       inkscape:connector-curvature="0"
       id="path3411"
       style="fill:#660033;fill-opacity:1" />
    <path
       d="m 319.96295,228.34511 c 3.11668,-4.08619 10.66894,-11.64738 16.7828,-16.80268 l 11.11616,-9.37324 5.54001,6.24256 5.54006,6.24257 -7.97138,7.08869 c -7.80311,6.93904 -24.23628,14.03151 -32.51087,14.03151 -3.76931,0 -3.62695,-0.70339 1.50322,-7.42941 z"
       inkscape:connector-curvature="0"
       id="path3409"
       style="fill:#660033;fill-opacity:1" />
    <path
       d="m 293.17574,218.22557 c 11.23873,-11.7307 52.47134,-28.0893 52.47134,-20.81741 0,6.49943 -38.75621,27.19397 -50.99329,27.22874 l -7.64128,0.0222 6.16323,-6.43303 z"
       inkscape:connector-curvature="0"
       id="path3407"
       style="fill:#660033;fill-opacity:1" />
    <path
       d="M 496.0625,2.46875 C 491.42209,2.3673579 481.957,6.1542882 474.75,11.375 c -7.59496,5.501803 -11.12386,6.53125 -22.46875,6.53125 -30.07528,0 -47.72946,20.306894 -57.59375,66.25 -2.9761,13.861292 -5.50898,20.05281 -10.21875,24.96875 -3.44707,3.59798 -5.69575,7.11675 -5,7.8125 1.00518,1.00521 12.86797,-3.35651 19.6875,-7.25 1.78122,-1.01691 6.53125,25.76527 6.53125,36.875 0,15.74483 -11.56646,22.77377 -22.5625,13.75 -7.08822,-5.81686 -3.32287,-12.50848 6.75,-12.03125 8.04611,0.3812 9.16788,-2.95694 1.90625,-5.65625 -13.53492,-5.03123 -22.57305,10.49045 -12.40625,21.3125 6.60519,7.03086 18.07221,6.8965 25.25,-0.28125 6.87496,-6.87496 7.18368,-6.23236 9.0625,18.65625 1.38463,18.34175 1.86369,20.09924 4.3125,15.40625 3.87094,-7.41854 14.34375,-39.10852 14.34375,-43.40625 0,-6.38136 5.27706,0.2983 13.28125,16.84375 4.17815,8.63667 8.27584,15.71875 9.125,15.71875 0.8492,0 3.45887,-8.25607 5.78125,-18.34375 l 4.21875,-18.34375 9.90625,18.15625 9.90625,18.125 3.78125,-17.5625 3.78125,-17.59375 -7.375,-15.03125 c -13.28916,-26.95204 -15.35308,-35.13668 -15.46875,-61.6875 -0.12462,-28.600516 4.6166,-42.132365 21,-59.90625 5.1759,-5.6152026 8.82773,-10.7972925 8.125,-11.5 -0.46799,-0.4679966 -1.27289,-0.6953518 -2.34375,-0.71875 z M 449.28125,35.6875 c 6.72228,0 6.64549,0.777982 -0.8125,10.125 -6.39685,8.01711 -10.8871,10.182778 -8.5625,4.125 0.74741,-1.947727 1.94878,-5.962982 2.6875,-8.90625 0.9505,-3.786959 2.92491,-5.34375 6.6875,-5.34375 z"
       inkscape:connector-curvature="0"
       id="path3405"
       style="fill:#dc0000;fill-opacity:1" />
  </g>
</svg>
