<?xml version="1.0" encoding="UTF-8" standalone="no"?>
<!-- Created with Inkscape (http://www.inkscape.org/) -->

<svg
   xmlns:dc="http://purl.org/dc/elements/1.1/"
   xmlns:cc="http://creativecommons.org/ns#"
   xmlns:rdf="http://www.w3.org/1999/02/22-rdf-syntax-ns#"
   xmlns:svg="http://www.w3.org/2000/svg"
   xmlns="http://www.w3.org/2000/svg"
   version="1.1"
   width="600"
   height="600"
   id="svg3133">
  <metadata
     id="metadata3139">
    <rdf:RDF>
      <cc:Work
         rdf:about="">
        <dc:format>image/svg+xml</dc:format>
        <dc:type
           rdf:resource="http://purl.org/dc/dcmitype/StillImage" />
        <dc:title></dc:title>
      </cc:Work>
    </rdf:RDF>
  </metadata>
  <defs
     id="defs3137" />
  <g
     id="g3074">
    <g
       id="g5664">
      <path
         d="m 444.93472,246.30813 c -6.4262,16.38407 -12.85419,32.77275 -19.28125,49.15625 15.49974,5.39166 30.99276,10.78766 46.5,16.125 11.66137,5.21591 27.92391,7.21829 36.53125,14.84375 -25.22358,65.77987 -51.25514,131.24958 -76.8125,196.90625 -1.05761,2.44287 -1.85537,5.04381 -3.5,7.1875 -62.55648,-24.33115 -125.20301,-48.44102 -187.84375,-72.5625 -14.45173,-6.18725 -30.20193,-10.3196 -43.71875,-18.03125 7.26722,-19.05141 14.65075,-38.06573 22.0625,-57.0625 -18.7908,-7.2612 -37.58024,-14.53014 -56.375,-21.78125 -13.58803,34.79292 -27.18643,69.59776 -40.5,104.5 20.00334,11.41236 43.30063,17.53111 64.6875,26.6875 92.70095,35.69698 185.39248,71.36772 277.96875,107.375 2.43384,-3.17242 3.62232,-7.0098 5.1875,-10.625 37.82188,-97.16418 76.35948,-194.09097 113.6875,-291.4375 -12.73791,-11.28478 -36.83628,-14.24989 -54.09375,-21.96875 -28.17833,-9.69852 -56.33747,-19.50832 -84.5,-29.3125 z"
         id="path4678"
         style="fill:#dc0000;fill-opacity:1" />
      <path
         d="m 233.37222,173.30813 c -1.61947,12.07347 -12.43275,34.1436 -17.65625,49.96875 -8.98978,23.82335 -18.1398,47.57455 -27.34375,71.3125 18.80268,7.25704 37.61046,14.50714 56.40625,21.78125 5.1714,-13.3766 10.31169,-26.76948 15.375,-40.1875 3.52968,-10.69352 10.84319,-25.59162 11.9375,-33.75 25.26122,8.52156 50.49078,17.21813 75.71875,25.96875 6.42565,-16.39305 12.81995,-32.79644 19.25,-49.1875 -44.53726,-15.48059 -89.08465,-30.86002 -133.6875,-45.90625 z"
         id="path4478-6-9"
         style="fill:#dc0000;fill-opacity:1" />
    </g>
    <path
       d="m 127.84653,0.34812 c -1.61947,12.07346 -12.43275,34.1436 -17.65625,49.96875 -30.57852,81.03452 -62.85187,161.39331 -93.71875,242.3125 20.00334,11.41236 43.30063,17.53111 64.6875,26.6875 92.70095,35.69698 185.39248,71.36772 277.96875,107.375 2.43384,-3.17242 3.62232,-7.0098 5.1875,-10.625 37.82188,-97.16418 76.35948,-194.09097 113.6875,-291.4375 C 465.26487,113.34459 441.1665,110.37948 423.90903,102.66062 325.20242,68.68741 226.65103,33.67861 127.84653,0.34812 z m 38.71875,69.125 c 66.76511,22.52237 133.36359,46.19957 200.0625,69.15625 11.66137,5.21591 27.92391,7.21829 36.53125,14.84375 -25.22358,65.77987 -51.25514,131.24958 -76.8125,196.90625 -1.05761,2.44287 -1.85537,5.04381 -3.5,7.1875 -62.55648,-24.33115 -125.20301,-48.44102 -187.84375,-72.5625 -14.45173,-6.18725 -30.20193,-10.3196 -43.71875,-18.03125 20.85765,-54.67943 42.68095,-108.99264 63.34375,-163.75 3.52968,-10.69352 10.84319,-25.59162 11.9375,-33.75 z"
       id="path4478-6-0"
       style="fill:#660000;fill-opacity:1" />
  </g>
</svg>
