<?xml version="1.0" encoding="UTF-8" standalone="no"?>
<!-- Created with Inkscape (http://www.inkscape.org/) -->

<svg
   xmlns:dc="http://purl.org/dc/elements/1.1/"
   xmlns:cc="http://creativecommons.org/ns#"
   xmlns:rdf="http://www.w3.org/1999/02/22-rdf-syntax-ns#"
   xmlns:svg="http://www.w3.org/2000/svg"
   xmlns="http://www.w3.org/2000/svg"
   version="1.1"
   width="600"
   height="600"
   id="svg3133">
  <metadata
     id="metadata3139">
    <rdf:RDF>
      <cc:Work
         rdf:about="">
        <dc:format>image/svg+xml</dc:format>
        <dc:type
           rdf:resource="http://purl.org/dc/dcmitype/StillImage" />
        <dc:title></dc:title>
      </cc:Work>
    </rdf:RDF>
  </metadata>
  <defs
     id="defs3137" />
  <g
     id="g3993">
    <g
       id="g3989">
      <path
         d="m 217.96875,151.90625 c -1.70208,12.68933 -13.04129,35.89886 -18.53125,52.53125 -11.98425,31.75883 -24.22063,63.40256 -36.53125,95.03125 19.76528,7.61804 39.52152,15.24312 59.28125,22.875 8.06842,-20.73432 16.08248,-41.49634 23.9375,-62.3125 3.70973,-11.239 11.41236,-26.89421 12.5625,-35.46875 37.83106,12.76184 75.60176,25.87271 113.375,39.03125 6.75367,-17.2143 13.50509,-34.43887 20.25,-51.65625 -58.07965,-20.22897 -116.17258,-40.40792 -174.34375,-60.03125 z"
         id="path3987"
         style="fill:#dc0000;fill-opacity:1" />
      <path
         d="m 468.625,238.5 c -6.74395,17.21073 -13.49874,34.41708 -20.25,51.625 6.85519,2.3727 13.70555,4.76495 20.5625,7.125 12.25622,5.48198 29.35986,7.57931 38.40625,15.59375 -26.51024,69.1353 -53.88894,137.9317 -80.75,206.9375 -1.11154,2.56748 -1.9277,5.30945 -3.65625,7.5625 C 357.19002,501.77147 291.33605,476.44569 225.5,451.09375 210.31109,444.5909 193.76882,440.23 179.5625,432.125 c 5.6873,-14.90954 11.43385,-29.78365 17.21875,-44.65625 -19.76567,-7.62901 -39.54312,-15.22353 -59.3125,-22.84375 -12.27604,31.45609 -24.49568,62.91686 -36.53125,94.46875 21.02371,11.99452 45.49093,18.43903 67.96875,28.0625 C 266.33587,524.67413 363.7639,562.15598 461.0625,600 c 2.55797,-3.33427 3.79248,-7.35663 5.4375,-11.15625 C 506.25118,486.72324 546.76788,384.84343 586,282.53125 572.61233,270.67084 547.29403,267.55009 529.15625,259.4375 508.976,252.49179 488.79607,245.50709 468.625,238.5 z"
         id="path4478-6-0-0"
         style="fill:#dc0000;fill-opacity:1" />
    </g>
    <path
       d="M 131.05625,0 C 129.35417,12.68933 117.9893,35.885268 112.49934,52.517658 80.36101,137.68576 46.44141,222.14365 14,307.19052 c 21.02371,11.99452 45.5094,18.42538 67.98722,28.04885 97.42962,37.51788 194.84936,75.00819 292.14796,112.85221 2.55797,-3.33427 3.80708,-7.36738 5.4521,-11.167 39.75118,-102.12051 80.25458,-203.99156 119.48668,-306.30374 -13.3876,-11.86041 -38.7153,-14.97678 -56.8531,-23.08937 C 338.47927,71.825288 234.90077,35.030678 131.05625,0 z m 40.6938,72.651068 c 70.1708,23.67124 140.16647,48.556222 210.26769,72.683912 12.25622,5.48198 29.34832,7.5865 38.39471,15.60094 -26.51024,69.1353 -53.86966,137.94463 -80.73072,206.95043 -1.11154,2.56748 -1.94999,5.3011 -3.67854,7.55415 -65.74748,-25.57228 -131.5896,-50.91199 -197.42565,-76.26393 -15.18891,-6.50285 -31.74253,-10.846 -45.94885,-18.951 21.92161,-57.46864 44.85812,-114.55238 66.57492,-172.10291 3.70973,-11.239002 11.3963,-26.897052 12.54644,-35.471592 z"
       id="path4478-6-0-0-6"
       style="fill:#660000;fill-opacity:1" />
  </g>
</svg>
